<svg width="90" height="32" viewBox="0 0 90 32" fill="none" xmlns="http://www.w3.org/2000/svg">
<path fill-rule="evenodd" clip-rule="evenodd" d="M56.9062 14.405L55.2765 14.851C54.1412 15.2963 53.1252 16.0653 52.2686 17.235V15.0918L48.2453 15.054V31.8823H52.4318V23.8323C52.4318 22.455 52.5959 21.486 52.9634 20.877C53.2451 20.2325 53.7737 19.7058 54.426 19.2613C55.1566 18.7738 55.9281 18.5308 56.7437 18.5308L58.0415 18.6145L58.0028 14.3228L56.9062 14.405ZM24.1412 31.8808H28.3687V9.95628H24.1412V31.8808ZM40.9695 23.307L40.1577 23.7478L38.0442 24.2745C37.1482 24.396 36.4594 24.5983 36.0516 24.8405C35.3628 25.2858 35.0347 25.8955 35.0347 26.7438C35.0347 27.512 35.2413 28.0358 35.6453 28.4025C36.0516 28.7225 36.5399 28.8855 37.1482 28.8855C38.1247 28.8855 38.9783 28.6017 39.7924 28.0358C40.5624 27.4698 40.9695 26.4578 40.9695 25.0043V23.307ZM45.4043 19.5013V31.8815H41.173V30.1405C39.8714 31.2733 38.0442 31.84 35.7288 31.8815C34.3027 31.84 33.1249 31.4378 32.2705 30.708C31.2977 29.8183 30.811 28.6017 30.8505 27.1098C30.811 24.962 31.581 23.467 33.1651 22.5365C34.1022 22.0083 35.3195 21.6468 36.8224 21.4423L40.0764 20.9193C40.7249 20.637 41.0507 20.188 41.0507 19.6243C41.0097 18.9368 40.8062 18.45 40.3194 18.2078C39.8326 17.9233 39.1423 17.7595 38.2493 17.8025C37.1899 17.7595 36.4594 18.0455 36.0121 18.6145C35.7288 18.9368 35.482 19.4235 35.4038 20.151H31.174C31.2977 18.6145 31.6638 17.3973 32.3936 16.4683C33.5319 14.9718 35.5238 14.2013 38.37 14.2435C40.1987 14.2013 41.823 14.568 43.2864 15.3363C44.667 16.0645 45.4043 17.4788 45.4043 19.5013ZM11.5404 14.1235C12.8428 14.1235 14.0206 14.4858 15.159 15.2155C16.1758 15.9038 16.9891 16.8735 17.5579 18.0055H21.9875C21.3375 15.6608 20.0769 13.7175 18.1654 12.224C16.2176 10.6845 13.9812 9.91628 11.5404 9.95628C8.4945 9.91628 5.97101 10.9675 3.85836 13.1508C1.70471 15.2955 0.649902 17.8425 0.649902 20.877C0.649902 23.8693 1.70471 26.5023 3.85836 28.6448C5.97101 30.7457 8.4945 31.8 11.5404 31.8C13.9812 31.8 16.2176 31.0703 18.1654 29.573C20.0769 28.0358 21.3375 26.1363 21.9875 23.79H17.5579C16.9891 24.9235 16.1758 25.8502 15.159 26.58C14.0206 27.2705 12.8428 27.6335 11.5404 27.6335C9.67157 27.6335 8.08746 26.9453 6.78433 25.648C5.44627 24.3153 4.7947 22.741 4.83419 20.877C4.7947 19.0183 5.44627 17.4388 6.78433 16.106C8.08746 14.811 9.67157 14.1235 11.5404 14.1235ZM71.8641 23.1425C71.8216 21.809 71.375 20.7148 70.5192 19.8258C69.5859 18.8975 68.4893 18.45 67.1877 18.4915C65.9286 18.45 64.8305 18.8975 63.9375 19.8258C63.0414 20.7148 62.5531 21.809 62.5531 23.1425C62.5531 24.396 63.0414 25.4888 63.9375 26.42C64.8305 27.3528 65.9286 27.7927 67.1877 27.7927C68.4893 27.7927 69.5859 27.3528 70.4797 26.42C71.375 25.4888 71.8216 24.396 71.8641 23.1425ZM73.4467 16.8735C75.1546 18.6145 76.0089 20.7148 76.0089 23.1425C76.0089 25.5695 75.1546 27.672 73.4467 29.3715C71.6993 31.1125 69.5859 32 67.1877 32C64.7903 32 62.7149 31.1125 61.01 29.3715C59.2596 27.672 58.4083 25.5695 58.4083 23.1425C58.4083 20.7148 59.2596 18.6145 61.01 16.8735C62.7149 15.1355 64.7903 14.2828 67.1877 14.2828C69.5859 14.2828 71.6993 15.1355 73.4467 16.8735ZM78.6129 22.8995H89.7928V19.1383H78.6129V22.8995ZM65.8071 10.8853H69.5874V0H65.8071V10.8853ZM86.9481 4.77627L76.741 14.9303L74.0595 12.2595L84.2636 2.10853L86.9481 4.77627Z" fill="white"/>
</svg>
